<?xml version="1.0" encoding="UTF-8"?>
<svg id="Capa_1" data-name="Capa 1" xmlns="http://www.w3.org/2000/svg" viewBox="0 0 1800 547.68">
  <defs>
    <style>
      .cls-1 {
        fill: #9d2a44;
      }
    </style>
  </defs>
  <polygon class="cls-1" points="694.76 421.48 630.28 329.08 602.54 329.08 602.54 462.04 630.28 462.04 630.28 371.55 693.42 462.04 722.12 462.04 722.12 329.08 694.76 329.08 694.76 421.48"/>
  <path class="cls-1" d="M825.42,405.6c-.13,7.53-1.66,14.13-4.59,19.8-2.93,5.68-6.86,10.04-11.76,13.1-4.91,3.06-10.36,4.59-16.36,4.59-6.76,0-11.93-2.13-15.5-6.41-3.57-4.27-5.36-9.92-5.36-16.93v-57.78h-28.51v58.35c0,14.8,3.38,26.05,10.14,33.77,6.76,7.72,16.45,11.57,29.08,11.57,9.18,0,17.7-2.36,25.54-7.08,6.99-4.2,12.76-9.96,17.31-17.26v20.7h28.32v-100.06h-28.32v43.62Z"/>
  <polygon class="cls-1" points="925.67 328.5 896.79 328.5 896.79 361.98 864.26 361.98 864.26 383.98 896.79 383.98 896.79 462.04 925.67 462.04 925.67 383.98 959.54 383.98 959.54 361.98 925.67 361.98 925.67 328.5"/>
  <path class="cls-1" d="M1051.75,363.8c-5.36-3.64-11.61-5.45-18.75-5.45-7.53,0-14.57,2.3-21.14,6.89-5.44,3.8-10.05,9.06-13.87,15.75v-19h-28.51v100.06h28.51v-45.15c.13-7.4,1.31-13.8,3.54-19.23,2.23-5.42,5.23-9.57,8.99-12.44,3.76-2.87,7.94-4.3,12.53-4.3,5.48,0,9.66,2.1,12.53,6.31,2.87,4.21,4.24,9.89,4.11,17.03h28.32c.12-9.57-1.21-17.79-4.02-24.68-2.81-6.89-6.89-12.15-12.24-15.78Z"/>
  <rect class="cls-1" x="1082.17" y="361.98" width="28.7" height="100.06"/>
  <path class="cls-1" d="M1107.42,313.77c-3.32-1.66-6.95-2.49-10.91-2.49s-7.59,.83-10.91,2.49c-3.32,1.66-5.93,3.89-7.84,6.7-1.91,2.81-2.87,5.87-2.87,9.18s.96,6.57,2.87,9.37c1.91,2.81,4.53,5.04,7.84,6.7,3.32,1.66,6.95,2.49,10.91,2.49s7.59-.83,10.91-2.49c3.31-1.66,5.93-3.89,7.84-6.7,1.91-2.8,2.87-5.93,2.87-9.37s-.96-6.38-2.87-9.18c-1.91-2.8-4.53-5.04-7.84-6.7Z"/>
  <polygon class="cls-1" points="1183.75 328.5 1154.87 328.5 1154.87 361.98 1122.34 361.98 1122.34 383.98 1154.87 383.98 1154.87 462.04 1183.75 462.04 1183.75 383.98 1217.62 383.98 1217.62 361.98 1183.75 361.98 1183.75 328.5"/>
  <path class="cls-1" d="M1253.2,313.77c-3.32-1.66-6.95-2.49-10.91-2.49s-7.59,.83-10.91,2.49c-3.32,1.66-5.93,3.89-7.84,6.7-1.91,2.81-2.87,5.87-2.87,9.18s.96,6.57,2.87,9.37c1.91,2.81,4.53,5.04,7.84,6.7,3.32,1.66,6.95,2.49,10.91,2.49s7.59-.83,10.91-2.49c3.31-1.66,5.93-3.89,7.84-6.7,1.91-2.8,2.87-5.93,2.87-9.37s-.96-6.38-2.87-9.18c-1.91-2.8-4.53-5.04-7.84-6.7Z"/>
  <rect class="cls-1" x="1227.95" y="361.98" width="28.7" height="100.06"/>
  <path class="cls-1" d="M1363.4,365.43c-8.93-4.72-19.13-7.08-30.61-7.08s-21.14,2.36-30.13,7.08c-8.99,4.72-16.07,11.16-21.24,19.32-5.17,8.16-7.82,17.22-7.94,27.17,.12,9.82,2.71,18.84,7.75,27.07,5.04,8.23,12.02,14.73,20.95,19.51,8.93,4.78,18.94,7.17,30.04,7.17s21.33-2.39,30.32-7.17c8.99-4.78,16.04-11.29,21.14-19.51,5.1-8.23,7.72-17.25,7.84-27.07,0-9.95-2.46-19-7.37-27.17-4.91-8.16-11.83-14.6-20.76-19.32Zm-3.92,62.18c-2.74,4.72-6.54,8.45-11.38,11.19-4.85,2.74-10.33,4.11-16.45,4.11s-11.38-1.37-16.16-4.11c-4.78-2.74-8.45-6.47-11-11.19-2.55-4.72-3.76-9.95-3.63-15.69,.13-5.74,1.59-11,4.4-15.78,2.8-4.78,6.63-8.54,11.48-11.29,4.85-2.74,10.33-4.11,16.45-4.11s11.51,1.37,16.17,4.11c4.65,2.74,8.26,6.47,10.81,11.19,2.55,4.72,3.76,10.02,3.64,15.88-.13,5.74-1.56,10.97-4.3,15.69Z"/>
  <path class="cls-1" d="M1478.57,358.35c-9.31,0-17.89,2.36-25.73,7.08-6.89,4.14-12.6,9.79-17.12,16.94v-20.38h-28.31v100.06h28.31v-43.81c.26-7.52,1.82-14.09,4.69-19.71,2.87-5.61,6.76-9.95,11.67-13.01,4.91-3.06,10.36-4.59,16.36-4.59,6.76,0,11.96,2.1,15.59,6.31,3.64,4.21,5.45,9.82,5.45,16.84v57.97h28.31v-58.35c0-14.79-3.38-26.05-10.14-33.77-6.76-7.72-16.45-11.57-29.08-11.57Z"/>
  <rect class="cls-1" x="1538.26" y="361.98" width="28.7" height="100.06"/>
  <path class="cls-1" d="M1563.51,313.77c-3.32-1.66-6.96-2.49-10.91-2.49s-7.59,.83-10.91,2.49c-3.32,1.66-5.93,3.89-7.84,6.7-1.91,2.81-2.87,5.87-2.87,9.18s.96,6.57,2.87,9.37c1.91,2.81,4.53,5.04,7.84,6.7,3.32,1.66,6.95,2.49,10.91,2.49s7.59-.83,10.91-2.49c3.31-1.66,5.93-3.89,7.84-6.7,1.91-2.8,2.87-5.93,2.87-9.37s-.96-6.38-2.87-9.18c-1.91-2.8-4.53-5.04-7.84-6.7Z"/>
  <path class="cls-1" d="M1670.55,407.04c-7.84-2.61-18.46-4.37-31.85-5.26-7.53-.51-12.95-1.66-16.26-3.44-3.32-1.78-5.16-4.27-5.55-7.46-.13-1.91,.51-3.76,1.91-5.55,1.4-1.78,3.64-3.22,6.7-4.3,3.06-1.08,7.01-1.63,11.86-1.63,7.52,0,13.45,1.28,17.79,3.83,4.33,2.55,7.01,6.12,8.03,10.71h27.74c-1.02-6.89-3.76-13.04-8.23-18.46-4.47-5.42-10.52-9.63-18.18-12.63-7.65-2.99-16.64-4.5-26.97-4.5s-18.78,1.37-26.11,4.11c-7.34,2.74-12.98,6.44-16.93,11.1-3.96,4.66-5.93,9.85-5.93,15.59,.12,8.93,4.27,16.14,12.43,21.62,8.16,5.49,20.22,8.87,36.16,10.14,7.14,.51,12.59,1.21,16.36,2.1,3.76,.89,6.38,2.04,7.84,3.44,1.46,1.4,2.26,3.19,2.39,5.36,0,2.17-.96,4.28-2.87,6.31-1.91,2.04-4.88,3.7-8.9,4.97-4.02,1.28-8.96,1.91-14.83,1.91-8.8-.13-15.53-1.82-20.18-5.07-4.66-3.25-7.37-7.24-8.13-11.96h-27.36c.38,6.76,2.84,13.01,7.37,18.75,4.53,5.74,11.06,10.33,19.61,13.77,8.54,3.44,18.68,5.17,30.42,5.17s21.65-1.6,29.75-4.78c8.1-3.19,14.12-7.33,18.08-12.44,3.95-5.1,5.87-10.59,5.74-16.45-.26-5.87-2.01-10.84-5.26-14.92-3.25-4.08-8.8-7.43-16.65-10.04Z"/>
  <polygon class="cls-1" points="1761.14 361.98 1761.14 328.5 1732.25 328.5 1732.25 361.98 1699.72 361.98 1699.72 383.98 1732.25 383.98 1732.25 462.04 1761.14 462.04 1761.14 383.98 1795 383.98 1795 361.98 1761.14 361.98"/>
  <polygon class="cls-1" points="1023.87 257.42 1071.89 124.46 1040.9 124.46 1004.74 227.19 973.56 124.46 944.86 124.46 987.33 257.42 1023.87 257.42"/>
  <path class="cls-1" d="M1093.7,254.17c8.8,4.59,19,6.89,30.61,6.89,10.33,0,19.96-2.01,28.89-6.03,8.93-4.02,16.01-9.28,21.24-15.78l-20.66-12.44c-3.06,3.44-7.08,6.31-12.05,8.61-4.97,2.3-10.46,3.44-16.45,3.44-8.8,0-16.04-2.04-21.72-6.12-5.68-4.08-8.77-9.63-9.28-16.64h85.52c.51-1.4,.89-4.27,1.15-8.61,.12-9.31-1.98-18.08-6.31-26.31-4.34-8.23-10.78-14.86-19.32-19.9-8.55-5.04-18.81-7.56-30.8-7.56-10.97,0-20.85,2.42-29.65,7.27-8.8,4.85-15.69,11.35-20.66,19.51-4.97,8.16-7.53,17.09-7.65,26.78-.26,10.33,2.01,19.58,6.79,27.74,4.78,8.16,11.57,14.54,20.37,19.13Zm11.86-72.22c5.48-4.27,12.12-6.41,19.9-6.41,5.61,0,10.49,1.12,14.64,3.35,4.14,2.23,7.37,5.14,9.66,8.7,2.3,3.57,3.51,7.4,3.64,11.48h-58.74c1.78-7.14,5.42-12.85,10.91-17.12Z"/>
  <polygon class="cls-1" points="1215 257.42 1243.89 257.42 1243.89 179.36 1277.75 179.36 1277.75 157.36 1243.89 157.36 1243.89 123.88 1215 123.88 1215 157.36 1182.48 157.36 1182.48 179.36 1215 179.36 1215 257.42"/>
  <polygon class="cls-1" points="751.58 257.42 751.58 124.46 715.42 124.46 675.63 212.84 639.27 124.46 602.54 124.46 602.54 257.42 629.52 257.42 629.52 163.29 664.53 257.42 685.19 257.42 724.41 163.29 724.41 257.42 751.58 257.42"/>
  <path class="cls-1" d="M881.07,258.02c4.61-.09,9.11-.06,13.26,0l11.36,.05v-27.86h-11.36c-4.19-.05-8.63-.08-13.21,0l-.03-51.16v-21.68h-28.32v43.62c-.13,7.53-1.66,14.13-4.59,19.8-2.93,5.68-6.86,10.04-11.76,13.11-4.91,3.06-10.36,4.59-16.36,4.59-6.76,0-11.93-2.13-15.5-6.41-3.57-4.27-5.36-9.92-5.36-16.93v-57.78h-28.51v58.35c0,14.8,3.38,26.05,10.14,33.77,5.97,6.81,14.23,10.61,24.77,11.41-2.73,3.58-5.08,7.38-6.94,11.38-2.94,6.34-4.6,12.79-4.95,19.18-.83,15.48,4.77,28.83,15.78,37.59,7.01,5.58,15.08,8.38,23.39,8.38,7.34,0,14.87-2.19,22.01-6.59,15.5-9.54,20.71-25.46,23.52-38.27,2.58-11.76,2.67-23.33,2.65-34.54Zm-29.8,28.59c-2.49,11.35-5.66,17.3-10.94,20.55-5.11,3.15-9.66,3.19-13.52,.12-3.88-3.09-5.68-7.92-5.33-14.35,.15-2.85,.96-5.87,2.41-8.99,4.86-10.49,15.82-18.98,29.38-22.79-.02,8.96-.26,17.47-2,25.45Z"/>
  <path class="cls-1" d="M325.64,193.3c-3.78,1.81-5.91,6.13-6.37,8.23-3.03,13.94,15.77,21.35,26.17,23.7,4.98,1.13,11.53,1.82,14.72-3.15,3.15-4.92,.17-10.68-2.92-14.68-7.59-9.81-18.77-20.25-31.6-14.1Zm26.68,22.28c-2.38,1.16-7.59-1.04-9.82-1.79-3.34-1.13-6.78-2.56-9.72-4.54-2.98-2.02-5.66-5.52-1.33-7.96,1.19-.67,2.56-.84,3.96-.76,.72,.13,1.45,.32,2.25,.62,3.07,1.14,19.67,12,14.65,14.44Z"/>
  <path class="cls-1" d="M272.6,252.45c15.71,12.14,35.66,14.76,54.6,18.16,10.49,1.88,21.42,4.15,30.6,9.84,10.86,6.73,16.71,18.11,24.81,27.56,8.71,10.16,21.47,18.12,35.1,13.17,24.94-9.07,33.43-48.17,29.32-71.25-2.38-13.34-7.93-26.51-15.36-37.78-2.02-3.07-4.21-6.04-6.54-8.88-2.59-3.16-5.37-6.17-8.31-9.01-1.42-1.36-2.91-2.62-4.39-3.9-1.33-1.16-15.62-13.28-22.71-15.85-1.36-.49-2.86-.93-4.22-.43-1.17,.43-2.05,1.57-2.16,2.81-.1,1.15,.42,2.28,1.16,3.17,1.09,1.29,2.64,2.13,3.94,3.14,2.35,1.63,4.69,3.25,7.03,4.88,4.82,3.21,8.61,7.24,12.75,11.18,4.06,3.86,7.79,8.07,11.09,12.6,6.71,9.2,11.71,19.59,14.78,30.55,3.18,11.38,3.02,24.78-.54,36.97-2.28,7.83-12.31,10.09-17.83,4.09l-.11-.13c-5.64-6.16-10.6-12.66-17.02-18.11-12.56-10.68-27.29-18-43.24-22.04-17.53-4.43-36.05-5.5-52.79-12.75-8.75-3.79-16.76-9.25-22.15-17.25-1.84-2.73-3.18-5.57-4.27-8.5-1.9-5.11-.92-10.88,2.53-15.11,3.24-3.99,7.03-7.44,11.07-10.08,19.03-12.47,43.94-12.47,65.83-11.15,4.16,.25,5.21-6.7,1-7.37-38.37-6.16-87.51-.22-99.85,43.75-5.04,17.96,1.16,36.37,15.88,47.73Zm-4.09-40.24c3.31,7.29,8.94,13.95,14.49,18.34,16.05,12.72,36.54,15.89,56.06,19.69,22.25,4.33,42.56,11.96,58.61,28.59,4.03,4.18,14.59,17.97,24.17,22.42-.63,.7-1.25,1.41-1.92,2.07-8.89,8.78-17.83,5.14-25.6-3.35-12.22-13.34-19.34-28.07-36.68-35.87-15.43-6.94-32.22-8.04-48.55-11.54-15.45-3.32-33.75-9.64-39.31-26.14-1.57-4.65-1.89-9.46-1.28-14.21Z"/>
  <path class="cls-1" d="M156.04,329.86c9.29,18.53,30.12,30.89,50.12,34.43,17.79,3.14,36.88-4.28,53.32-10.25,19.54-7.1,38.14-13.6,59.32-12.49,8.74,.46,18.82-.91,26.96,2.89,8.38,3.91,14.43,14.18,24.89,9.64,7.98-3.46,7.64-12.42,2.8-18.26-.32-.38-.82-.89-1.39-1.44-1.84-1.76-2.17-4.58-.78-6.71,1.96-3.01,4.34-7.15,4.52-9.42,.77-9.52-7.6-16.84-16.83-13.58-5.43,1.92-8.86,6.74-13.53,9.81l-.07,.05c-4.07,2.67-8.97,3.84-13.8,3.2-8.25-1.09-16.59-1.69-24.73-3.44-12.41-2.66-22.74-7.97-32.24-16.38-16.92-14.99-34.42-28.05-57-33.18-19.01-4.31-40.14-1.17-54.54,12.84-14.27,13.88-15.7,34.96-7.02,52.29Zm20.04-47.98c17.75-12.31,40.27-8.02,58.51,.77,10.57,5.09,19.45,11.56,28.08,19.45,6.59,6.03,13.3,12.01,21.33,16.09,6.53,3.31,15.95,5.53,23.05,7.23,2.5,.59,2.29,4.21-.25,4.52-11.15,1.35-28.8,3.94-39.07,7.73-15.04,5.55-30.41,12.1-46.4,14.3-16.93,2.32-36.04-5.68-47.64-18.01-14.25-15.14-15.81-39.44,2.4-52.07Z"/>
  <path class="cls-1" d="M504.56,322.99c-10.26-49.71-22.96-104.2-56.36-144.01-32.98-39.31-83.57-57.61-132.77-65.97-9.61-1.63-19.27-2.95-28.95-4.07,.13-.31,.23-.64,.3-.96,.66-2.79,1.32-5.62,1.2-8.48-.16-3.52-2.13-5.26-3.37-8.23-1.24-2.98,1.53-4.07,3.29-5.89,2.46-2.55,5.69-3.83,8.8-5.32,9.83-4.71,20.28-7.49,30.75-10.32,3.6-.97,7.46-2.74,7.73-7.26,.28-4.63-4.03-4.94-7.02-6.39-.1-.05-.13-.23-.35-.67,3.1-2.58,6.9-3.95,10.56-5.56,4.17-1.84,8.42-3.53,11.74-6.81,2.4-2.37,2.95-5.3,1.61-8.23-1.42-3.1-4.3-5.13-7.64-4.38-14.34,3.19-28.07,7.88-39.1,18.24-3.06,2.87-5.76,6.2-10.63,7.76,.62-4.12,1.31-7.65,1.66-11.21,1.15-11.59-1.59-22.11-9.09-31.18-1.18-1.43-2.5-2.94-4.74-2.34-2.25,.6-2.6,2.42-2.87,4.38-1.15,8.39-2.2,16.8-3.57,25.16-1.4,8.57-2.47,17.21-4.25,25.71-.59,2.82-1.36,5.6-2.14,8.38-.44,1.55-.73,5.4-2.38,6.14-.77,.35-1.66,.28-2.5,.2-4.65-.44-9.87-1.15-14.35,.59-2.03,.79-3.98,2.26-5.77,3.51-.5,.35-5.09,4.29-5.17,4.25,.06,.04,.13,.07,.2,.1-6.48,5.79-11.15,13.78-15.17,21.73-47.56,6.22-97.41,20.8-134.19,52.59-38.46,33.24-53.82,83.32-65.81,130.97-7,27.83-12.87,55.94-17.52,84.26-1.67,10.16-2.67,20.69-.28,30.81,2.45,10.36,9.22,19.88,15.62,28.17,28.12,36.4,72.11,60.5,114.66,75.99,70.86,25.79,150.75,28.09,223.3,8.12,45.67-12.57,91.9-34.56,125.97-68.09,15.31-15.06,30.65-34.08,31.1-56.48,.24-12.12-2.52-24.26-5.03-36.05-2.77-13.01-4.8-26.15-7.48-39.18ZM269.62,93.08c.72,.74,1.48,1.29,2.36,2.79,3.82,6.44,2.81,8.92,.74,15.27-2.34,7.2-5.66,14.15-9.06,20.9-6.72,13.36-14.72,26.04-23.37,38.23-9.26,13.05-19.27,25.41-29.81,37.32-2.67,3.01-7.61,.31-6.51-3.56,4.66-16.4,10.26-32.53,16.7-48.34,5.98-14.67,26.51-70.18,48.94-62.62ZM61.38,225.63c.06-.45,.19-.9,.39-1.31,6.46-13.54,14.37-26.34,24.43-37.58,33.31-37.24,83.05-52.43,131.18-60.66-17.21,36.64-30.43,75.3-37.47,115.19-1.18,6.7,7.17,13.53,12.58,7.33,25.87-29.63,52.5-59.38,72.64-93.35,5.56-9.37,12.05-20.23,16.55-31.33,45.55,5.42,93.15,17.79,130.61,45.53,22.78,16.87,37.68,39.52,48.56,64.43,.14,.31,.24,.64,.3,.97,6.35,33.35-5.35,68.93-26.48,95.38-24.44,30.58-58.98,51.01-96.46,61.29-77.33,21.21-171.69,5.68-231.08-50.7-31.24-29.66-51.51-72.04-45.75-115.18Zm427.88,201.5c-24.91,34.64-66.72,57.84-105.89,72.64-35.57,13.43-73.67,21.86-111.72,21.43-12.97-.15-25.93-.29-38.9-.44-15.99-.18-31.68-3.15-47.3-6.53-45.06-9.76-89.92-27.91-126.08-57.05-15.28-12.31-34.18-29.49-39.68-49.02-3.05-10.83-.63-22.94,1.55-33.71,2.37-11.75,4.67-23.48,6.93-35.25,3.91-20.4,8.57-40.77,14.27-60.81,1.2-4.23,7.27-3.93,8.07,.39,4.07,21.86,13.52,42.72,27.84,60.86,28.17,35.7,68.22,57.58,111.89,68.42,83.73,20.78,191.45,9.43,250.03-60.62,15.02-17.97,25.36-38.41,30.58-60.02,1-4.15,6.9-4.21,8.02-.09,.02,.06,.03,.12,.05,.18,6.86,25.22,11.31,50.79,16.86,76.29,2.27,10.43,4.98,20.94,5.26,31.66,.33,12.38-4.7,21.85-11.77,31.68Z"/>
  <path class="cls-1" d="M442.25,377.4c-8.09,2.76-22.31,12.29-33.68,18.41-12.8,6.89-26.08,12.85-39.76,17.78-25.91,9.34-53.1,15.29-80.58,17.22-59.06,4.15-116.71-10.12-169.14-36.94-5.45-2.79-10.08,5-4.82,8.24,52,32.05,114.71,46.49,175.52,41.99,29.2-2.16,58.1-8.34,85.57-18.5,13.26-4.9,26.23-10.66,38.72-17.27,11.94-6.31,28.34-16.55,34.51-23.86,2.04-2.41-3.59-8.02-6.34-7.08Z"/>
  <path class="cls-1" d="M153.26,256c11.11-10.11,13.63-23.95,14.6-37.57,.3-12.3-3.57-22.69-10.7-31.62-8.7-10.9-24.74-10.75-37.74-2.33-10.83,7.01-19,16.78-27.1,26.66-5.85,7.15-9.11,15.18-11.27,24.04-3.3,13.56,8.94,31.23,20.93,34.47,19.99,5.4,36.68-.37,51.27-13.65Zm-51.58,1.4c-6.62-3.26-11.79-13.28-10.49-20.5,.92-5.15,2.42-10.13,5.57-14.39,7.87-10.68,16.76-20.33,27.33-28.49,9.33-7.2,22.95-6.82,27.91,7.89,1.76,5.22,4.05,10.24,3.55,15.72-.12,7.71-1.96,14.87-4.87,21.7-7.17,16.81-32.62,26.13-48.99,18.08Z"/>
  <path class="cls-1" d="M133.26,212.36c-13.99-4.28-28.5,4.92-32.79,19.02-3.72,12.22,9.38,20.55,18.65,17.16,4.76-1.74,9.28-3.8,13.54-6.49,6.69-4.22,9.65-10.47,9.76-16.86-.04-7.3-2.94-10.93-9.16-12.83Zm.9,13.78c-1.56,7.88-11.4,15.57-20.14,15.48-3.86-.1-6.29-1.9-6.36-5.92-.1-5.21,1.89-10.04,6.35-12.37,5.04-2.63,10.72-4.43,16.76-2.7,2.96,.85,4.02,2.36,3.39,5.51Z"/>
</svg>