<?xml version="1.0" encoding="UTF-8"?><svg id="Layer_1" xmlns="http://www.w3.org/2000/svg" viewBox="0 0 535.05 345.02"><defs><style>.cls-1{fill:none;stroke:#018d84;stroke-miterlimit:10;stroke-width:.85px;}.cls-2{fill:#01bbb0;}.cls-3,.cls-4{fill:#018d84;}.cls-4{fill-rule:evenodd;}</style></defs><g><g><path class="cls-3" d="M153.21,151.36s2.29-16.15,2.29-19.45c0-3.69-3.62-5.87-3.64-5.87l-.77,1.31s2.88,1.73,2.88,4.56c0,3.22-2.27,19.2-2.27,19.24l1.5,.21Z"/><path class="cls-1" d="M153.21,151.36s2.29-16.15,2.29-19.45c0-3.69-3.62-5.87-3.64-5.87l-.77,1.31s2.88,1.73,2.88,4.56c0,3.22-2.27,19.2-2.27,19.24l1.5,.21Z"/></g><g><path class="cls-4" d="M152.28,125.65c-.42,.72-1.02,1.44-1.44,2.16,0,0-2.05-.96-3.56-1.5-1.01-.41-2.9-1.25-1.79-2.99,.75-1.16,2.07-2.01,3.4-.8,1.11,1.02,3.39,3.13,3.39,3.13"/><path class="cls-1" d="M152.28,125.65c-.42,.72-1.02,1.44-1.44,2.16,0,0-2.05-.96-3.56-1.5-1.01-.41-2.9-1.25-1.79-2.99,.75-1.16,2.07-2.01,3.4-.8,1.11,1.02,3.39,3.13,3.39,3.13"/></g><g><path class="cls-3" d="M125.12,151.36s-2.29-16.15-2.29-19.45c0-3.69,3.63-5.87,3.64-5.87l.77,1.31s-2.88,1.73-2.88,4.56c0,3.22,2.27,19.2,2.27,19.24l-1.5,.21Z"/><path class="cls-1" d="M125.12,151.36s-2.29-16.15-2.29-19.45c0-3.69,3.63-5.87,3.64-5.87l.77,1.31s-2.88,1.73-2.88,4.56c0,3.22,2.27,19.2,2.27,19.24l-1.5,.21Z"/></g><g><path class="cls-4" d="M126.05,125.65c.42,.72,1.03,1.44,1.44,2.16,0,0,2.05-.96,3.56-1.5,1.01-.41,2.9-1.25,1.78-2.99-.75-1.16-2.07-2.01-3.4-.8-1.11,1.02-3.39,3.13-3.39,3.13"/><path class="cls-1" d="M126.05,125.65c.42,.72,1.03,1.44,1.44,2.16,0,0,2.05-.96,3.56-1.5,1.01-.41,2.9-1.25,1.78-2.99-.75-1.16-2.07-2.01-3.4-.8-1.11,1.02-3.39,3.13-3.39,3.13"/></g><g><path class="cls-3" d="M125.9,143.72c.06,.68,.14,1.35,.23,2,.23,1.72,.56,3.38,.96,4.96,.4,1.58,.88,3.07,1.42,4.47,2.62,6.76,6.72,11.17,10.78,11.19h0c.31,0,.61-.02,.92-.07,.83-.13,1.65-.44,2.45-.9h0c.81-.47,1.6-1.1,2.36-1.87,3.74-3.8,6.73-11.07,7.42-19.76l.02-.26,.23,.02,2.46,.17,.24,.02-.02,.28c-.09,1.12-.22,2.22-.38,3.29-.28,1.9-.68,3.73-1.16,5.45-.48,1.73-1.06,3.35-1.71,4.85-3.11,7.18-7.95,11.7-12.82,11.69-.6,0-1.21-.07-1.81-.21-1.02-.23-2.04-.66-3.03-1.26-.98-.6-1.95-1.37-2.87-2.29-4.33-4.35-7.76-12.14-8.63-21.5l-.03-.28,.24-.02,2.45-.2,.23-.02,.03,.26Z"/><path class="cls-1" d="M125.9,143.72c.06,.68,.14,1.35,.23,2,.23,1.72,.56,3.38,.96,4.96,.4,1.58,.88,3.07,1.42,4.47,2.62,6.76,6.72,11.17,10.78,11.19h0c.31,0,.61-.02,.92-.07,.83-.13,1.65-.44,2.45-.9h0c.81-.47,1.6-1.1,2.36-1.87,3.74-3.8,6.73-11.07,7.42-19.76l.02-.26,.23,.02,2.46,.17,.24,.02-.02,.28c-.09,1.12-.22,2.22-.38,3.29-.28,1.9-.68,3.73-1.16,5.45-.48,1.73-1.06,3.35-1.71,4.85-3.11,7.18-7.95,11.7-12.82,11.69-.6,0-1.21-.07-1.81-.21-1.02-.23-2.04-.66-3.03-1.26-.98-.6-1.95-1.37-2.87-2.29-4.33-4.35-7.76-12.14-8.63-21.5l-.03-.28,.24-.02,2.45-.2,.23-.02,.03,.26Z"/></g><path class="cls-4" d="M101.93,117.34c2.54,0,4.59,2.06,4.59,4.59s-2.06,4.59-4.59,4.59-4.59-2.06-4.59-4.59,2.06-4.59,4.59-4.59"/><path class="cls-3" d="M141.26,168.28c-.72,11.35-5.61,21.56-13.16,29.11-8.18,8.18-19.49,13.25-31.99,13.25h0s-.02,0-.02,0h0c-12.5,0-23.81-5.08-32-13.26h0c-8.18-8.19-13.25-19.5-13.25-31.99h0v-.02h0c0-12.5,5.07-23.81,13.26-32h0c8.18-8.18,19.49-13.25,31.98-13.25h0s.01,0,.01,0v3.54h-.01c-11.51,0-21.94,4.67-29.49,12.22h0c-7.55,7.56-12.23,17.99-12.23,29.5h0v.02h0c0,11.51,4.68,21.94,12.22,29.49h0c7.55,7.55,17.99,12.23,29.5,12.23h0s0,0,0,0h.02c11.51,0,21.93-4.67,29.48-12.22,6.92-6.92,11.42-16.25,12.13-26.61h3.53Z"/></g><g><path class="cls-3" d="M88.81,138.77c5.8,6.67,10.13,13.68,10.39,22.5,.05,1.61,.3,3.41-1.47,4.15-1.72,.73-8.08-8.65-10.33-7.63-2.78,1.26-.86,5.93-1.08,9.11-.23,3.31-.12,6.64-.03,9.96,.1,3.68,.38,7.36-3.39,9.7-.26,.16-.43,.46-.66,.69-1.29,1.29,1.05,4.33-1.96,4.58-3.49,.29-7.02,.04-10.53,0-.27,0-.61-.21-.8-.42-2.92-3.29-3.18-14.87-.32-19.23,.79-1.2,1-3.61,3.71-2.09,2.65,1.49,.93,2.73,.11,4.11-1.31,2.2-2.54,4.42-1.58,7.9,3.69-4.85,10.75-6.88,8.88-14.67-.27-1.14,.68-1.98,1.23-2.95,2-3.51,1.1-5.15-2.93-5.77-4.24-.65-6.82-4.62-5.92-8.71,.48-2.17,2.01-1.62,3.32-1.67,3.22-.12,6.03,.32,8.63-3.23,1.42-1.93,5.56-2,4.73-6.34Z"/><path class="cls-3" d="M90.54,166.56c6.5,4.94,7.08,4.94,13.29-.21,0,3.6,.06,6.61-.02,9.63-.05,2.05-.07,3.58,2.86,3.58,3.87,0,6.22,2.69,8.12,6.29,1.59-3.53,.72-5.73-1.79-7.76-3.34-2.7-4.92-6.18-3.52-10.51,.3-.94,.32-2.58,1.97-1.96,1.06,.4,2.85,.9,2.37,2.48-1.15,3.8,1.14,5.75,3.5,8.07,4.21,4.15,3.67,11.06-.71,14.88-1.14,1-2.33,.85-3.56,.86-7.83,.03-15.66,.04-23.48,0-1.31,0-3.05,.56-3.33-1.64-.23-1.79,.47-2.65,2.37-2.63,2.68,.03,1.89-2.05,1.9-3.44,.07-5.69,.03-11.38,.03-17.66Z"/><path class="cls-3" d="M105.9,149.89c.95,0,1.9,0,2.85,0,1.28-.28,2.64-.26,3.83-.92,1.81-1.76,3.95-.55,5.95-.64,0,0-.07-.07-.06-.07-1.13,.72-1.69,1.84-1.99,3.06-1.41,5.75-5.31,8.38-11.09,8.87-.72-1.69,.69-2.5,1.42-3.57,2.1-2.56-1.29-4.4-.9-6.74Z"/><path class="cls-2" d="M105.9,149.89c-.32-.3-.58-.66-.95-.89-1.59-.99-4.53-.21-4.61,.97s2.44,2.12,3.89,2.85c1.59,.8,2.86,1.78,2.57,3.81,2.45-2.61,1.4-4.76-.9-6.74Z"/><path class="cls-2" d="M110.74,147.99h0c-.35-.29-.71-.58-1.06-.87-.9-1.04-1.63-2.29-2.81-3.02-.2-.12-.42-.33-.65-.27-.59,.16-.35,4.49,2.37,5.28,.08,.25,.13,.51,.16,.78,1.78,1.72,2.93,.92,3.83-.92-.61-.33-1.23-.65-1.84-.98Z"/></g><g><path class="cls-3" d="M183.41,174.67v17.32h-10.13v-49.15h19.18c3.69,0,6.94,.67,9.74,2.03,2.8,1.35,4.96,3.27,6.46,5.76,1.51,2.49,2.26,5.32,2.26,8.49,0,4.82-1.65,8.62-4.95,11.39-3.3,2.78-7.86,4.17-13.69,4.17h-8.88Zm0-8.2h9.05c2.68,0,4.72-.63,6.13-1.89,1.41-1.26,2.11-3.06,2.11-5.4s-.71-4.35-2.13-5.84-3.38-2.25-5.88-2.3h-9.28v15.43Z"/><path class="cls-3" d="M234.3,192.67c-5.36,0-9.72-1.64-13.08-4.93-3.37-3.29-5.05-7.66-5.05-13.13v-.95c0-3.67,.71-6.95,2.13-9.84,1.42-2.89,3.43-5.12,6.03-6.68s5.56-2.35,8.9-2.35c5,0,8.93,1.58,11.8,4.73,2.87,3.15,4.3,7.62,4.3,13.4v3.98h-23.26c.32,2.39,1.27,4.3,2.85,5.74,1.59,1.44,3.59,2.16,6.03,2.16,3.76,0,6.7-1.36,8.81-4.08l4.79,5.37c-1.46,2.07-3.44,3.69-5.94,4.84s-5.27,1.74-8.3,1.74Zm-1.11-30.01c-1.94,0-3.51,.66-4.71,1.97-1.2,1.31-1.97,3.19-2.31,5.63h13.57v-.78c-.05-2.17-.63-3.85-1.76-5.04-1.13-1.19-2.72-1.78-4.79-1.78Z"/><path class="cls-3" d="M267.24,146.48v8.98h6.25v7.16h-6.25v18.23c0,1.35,.26,2.32,.78,2.9,.52,.58,1.51,.88,2.97,.88,1.08,0,2.04-.08,2.87-.24v7.39c-1.91,.58-3.88,.88-5.91,.88-6.84,0-10.33-3.45-10.47-10.36v-19.68h-5.33v-7.16h5.33v-8.98h9.76Z"/><path class="cls-3" d="M299.39,181.9c0-1.19-.59-2.13-1.77-2.82s-3.08-1.3-5.69-1.84c-8.69-1.82-13.03-5.51-13.03-11.07,0-3.24,1.34-5.95,4.04-8.12,2.69-2.17,6.21-3.26,10.55-3.26,4.64,0,8.34,1.09,11.12,3.28,2.78,2.18,4.17,5.02,4.17,8.51h-9.76c0-1.39-.45-2.55-1.35-3.46-.9-.91-2.31-1.37-4.22-1.37-1.64,0-2.92,.37-3.81,1.11-.9,.74-1.35,1.69-1.35,2.84,0,1.08,.51,1.95,1.54,2.62,1.02,.66,2.75,1.24,5.18,1.72,2.43,.48,4.48,1.03,6.14,1.64,5.15,1.89,7.73,5.17,7.73,9.82,0,3.33-1.43,6.03-4.29,8.08s-6.55,3.09-11.07,3.09c-3.06,0-5.78-.55-8.15-1.64-2.38-1.09-4.24-2.59-5.59-4.49-1.35-1.9-2.03-3.96-2.03-6.16h9.25c.09,1.73,.73,3.06,1.92,3.98,1.19,.92,2.79,1.38,4.79,1.38,1.87,0,3.28-.35,4.24-1.06,.96-.71,1.44-1.64,1.44-2.79Z"/><path class="cls-2" d="M314.5,178.76c0-2.27,.63-4.38,1.91-6.31,1.27-1.94,3.61-4.08,7-6.45-1.46-1.96-2.61-3.8-3.44-5.52-.83-1.72-1.25-3.52-1.25-5.38,0-3.83,1.21-6.94,3.63-9.33,2.42-2.4,5.68-3.59,9.77-3.59,3.67,0,6.68,1.09,9.03,3.27,2.35,2.18,3.53,4.91,3.53,8.17,0,3.92-1.98,7.37-5.94,10.36l-3.78,2.74,8.47,9.86c1.33-2.61,1.99-5.49,1.99-8.64h8.3c0,6.39-1.47,11.57-4.42,15.53l7.36,8.54h-11.07l-2.53-2.9c-3.62,2.39-7.79,3.58-12.49,3.58s-8.76-1.28-11.68-3.83c-2.93-2.55-4.39-5.91-4.39-10.08Zm16.54,6.04c2.34,0,4.56-.65,6.65-1.95l-9.69-11.18-.71,.5c-2,1.71-3,3.71-3,6.03,0,1.95,.62,3.54,1.87,4.76,1.25,1.22,2.88,1.83,4.88,1.83Zm-3.58-29.84c0,1.69,.99,3.82,2.97,6.38l2.6-1.72c1.33-.86,2.25-1.69,2.75-2.5,.51-.81,.76-1.78,.76-2.9s-.42-2.1-1.25-2.94c-.83-.83-1.9-1.25-3.21-1.25-1.4,0-2.52,.45-3.36,1.35s-1.27,2.09-1.27,3.58Z"/><path class="cls-3" d="M380.72,179.8l11.14-36.97h11.28l-17.12,49.15h-10.57l-17.05-49.15h11.24l11.07,36.97Z"/><path class="cls-3" d="M423.14,192.67c-5.36,0-9.72-1.64-13.08-4.93-3.36-3.29-5.05-7.66-5.05-13.13v-.95c0-3.67,.71-6.95,2.13-9.84,1.42-2.89,3.43-5.12,6.03-6.68s5.56-2.35,8.9-2.35c5,0,8.93,1.58,11.8,4.73,2.87,3.15,4.3,7.62,4.3,13.4v3.98h-23.26c.32,2.39,1.27,4.3,2.85,5.74,1.59,1.44,3.6,2.16,6.03,2.16,3.76,0,6.7-1.36,8.81-4.08l4.79,5.37c-1.46,2.07-3.44,3.69-5.94,4.84s-5.27,1.74-8.31,1.74Zm-1.11-30.01c-1.94,0-3.51,.66-4.71,1.97-1.2,1.31-1.97,3.19-2.31,5.63h13.57v-.78c-.04-2.17-.63-3.85-1.75-5.04-1.13-1.19-2.72-1.78-4.79-1.78Z"/><path class="cls-3" d="M456.07,146.48v8.98h6.25v7.16h-6.25v18.23c0,1.35,.26,2.32,.78,2.9,.52,.58,1.51,.88,2.97,.88,1.08,0,2.04-.08,2.87-.24v7.39c-1.91,.58-3.88,.88-5.91,.88-6.84,0-10.33-3.45-10.47-10.36v-19.68h-5.33v-7.16h5.33v-8.98h9.76Z"/><path class="cls-3" d="M488.23,181.9c0-1.19-.59-2.13-1.77-2.82s-3.08-1.3-5.69-1.84c-8.69-1.82-13.03-5.51-13.03-11.07,0-3.24,1.34-5.95,4.04-8.12,2.69-2.17,6.21-3.26,10.55-3.26,4.64,0,8.34,1.09,11.12,3.28,2.78,2.18,4.17,5.02,4.17,8.51h-9.76c0-1.39-.45-2.55-1.35-3.46-.9-.91-2.31-1.37-4.22-1.37-1.64,0-2.92,.37-3.81,1.11-.9,.74-1.35,1.69-1.35,2.84,0,1.08,.51,1.95,1.54,2.62,1.02,.66,2.75,1.24,5.18,1.72,2.43,.48,4.48,1.03,6.14,1.64,5.15,1.89,7.73,5.17,7.73,9.82,0,3.33-1.43,6.03-4.29,8.08s-6.55,3.09-11.07,3.09c-3.06,0-5.78-.55-8.15-1.64-2.38-1.09-4.24-2.59-5.59-4.49-1.35-1.9-2.03-3.96-2.03-6.16h9.25c.09,1.73,.73,3.06,1.92,3.98,1.19,.92,2.79,1.38,4.79,1.38,1.87,0,3.28-.35,4.24-1.06,.96-.71,1.44-1.64,1.44-2.79Z"/></g></svg>